<?xml version="1.0" encoding="utf-8"?>
<svg width="35" height="35" viewBox="0 0 35 35" fill="none" xmlns="http://www.w3.org/2000/svg">
  <g id="Group 1191">
    <g>
      <rect width="35" height="35" />
      <path id="Vector" d="M34.8742 17.4371C34.8742 27.0673 27.0672 34.8741 17.4371 34.8741C7.80685 34.8741 0 27.0673 0 17.4371C0 7.80683 7.80685 0 17.4371 0C27.0672 0 34.8742 7.80683 34.8742 17.4371L34.8742 17.4371Z" fill="#22253B" fill-rule="evenodd" transform="translate(0.014 0)" />
      <path id="Vector" d="M5.856 2.93986L7.88194 2.93986L7.88194 0L5.50037 0L5.50037 0.010601C2.61458 0.111014 2.02312 1.70444 1.971 3.37802L1.96505 3.37802L1.96505 4.84605L0 4.84605L0 7.72507L1.96505 7.72507L1.96505 15.4424L4.92651 15.4424L4.92651 7.72507L7.35251 7.72507L7.82099 4.84605L4.92748 4.84605L4.92748 3.9591C4.92748 3.39351 5.31063 2.93986 5.856 2.93986L5.856 2.93986Z" fill="#FFFFFF" fill-rule="evenodd" transform="translate(13.364 9.973)" />
    </g>
  </g>
</svg>