<?xml version="1.0" encoding="utf-8"?>
<svg width="35" height="35" viewBox="0 0 35 35" fill="none" xmlns="http://www.w3.org/2000/svg">
  <g id="Group 1189">
    <g>
      <rect width="35" height="35" />
      <path id="Vector" d="M34.8742 17.4371C34.8742 27.0673 27.0672 34.8741 17.4371 34.8741C7.80685 34.8741 0 27.0673 0 17.4371C0 7.80683 7.80685 0 17.4371 0C27.0672 0 34.8742 7.80683 34.8742 17.4371L34.8742 17.4371Z" fill="#22253B" fill-rule="evenodd" transform="translate(0.014 0)" />
      <g id="Group" transform="translate(8.379 8.686)">
        <path id="Vector" d="M13.022 0L4.83326 0C2.16817 0 0 2.16815 0 4.83324L0 13.0221C0 15.6871 2.16817 17.8553 4.83326 17.8553L13.0222 17.8553C15.687 17.8553 17.8552 15.6871 17.8552 13.0221L17.8552 4.83324C17.8552 2.16815 15.687 0 13.022 0L13.022 0ZM13.9265 5.19684C13.131 5.19684 12.4839 4.54976 12.4839 3.75421C12.4839 2.95867 13.131 2.31145 13.9265 2.31145C14.7221 2.31145 15.3692 2.95867 15.3692 3.75421C15.3692 4.54976 14.7221 5.19684 13.9265 5.19684L13.9265 5.19684ZM8.92761 13.8098C6.23555 13.8098 4.04548 11.6197 4.04548 8.92761C4.04548 6.23553 6.23555 4.04546 8.92761 4.04546C11.6197 4.04546 13.8099 6.23553 13.8099 8.92761C13.8099 11.6197 11.6197 13.8098 8.92761 13.8098L8.92761 13.8098Z" fill="#FFFFFF" fill-rule="evenodd" />
        <path id="Vector" d="M3.8354 0C1.72063 0 0 1.72051 0 3.8354C0 5.95014 1.72063 7.67083 3.8354 7.67083C5.95028 7.67083 7.67069 5.95014 7.67069 3.8354C7.67069 1.72051 5.95028 0 3.8354 0L3.8354 0Z" fill="#FFFFFF" fill-rule="evenodd" transform="translate(5.092 5.092)" />
        <path id="Vector" d="M0.499872 0C0.224281 0 0 0.22436 0 0.499988C0 0.775641 0.224281 1 0.499872 1C0.775463 1 1 0.775794 1 0.499988C1 0.224182 0.775463 0 0.499872 0L0.499872 0Z" fill="#FFFFFF" fill-rule="evenodd" transform="translate(13.531 3.358)" />
      </g>
    </g>
  </g>
</svg>