<?xml version="1.0" encoding="utf-8"?>
<svg width="35" height="35" viewBox="0 0 35 35" fill="none" xmlns="http://www.w3.org/2000/svg">
  <g id="Group 1190">
    <g>
      <rect width="35" height="35" />
      <path id="Vector" d="M34.8741 17.4371C34.8741 27.0673 27.0673 34.8741 17.4371 34.8741C7.80683 34.8741 0 27.0673 0 17.4371C0 7.80683 7.80683 0 17.4371 0C27.0673 0 34.8741 7.80683 34.8741 17.4371L34.8741 17.4371Z" fill="#22253B" fill-rule="evenodd" />
      <path id="Vector" d="M9.12937 10.5722L10.2447 10.5722C10.2447 10.5722 10.5816 10.5354 10.7536 10.3503C10.9119 10.1805 10.9069 9.86171 10.9069 9.86171C10.9069 9.86171 10.8851 8.36918 11.5797 8.14933C11.9936 8.01849 12.4786 8.57301 13.0034 9.17299C13.3467 9.56554 13.7071 9.97754 14.0757 10.2298C14.7803 10.7126 15.3157 10.6068 15.3157 10.6068L17.8078 10.5722C17.8078 10.5722 19.1112 10.4921 18.4931 9.46987C18.4426 9.3862 18.1332 8.71375 16.6405 7.33179C15.9816 6.72182 15.6377 6.4107 15.6016 6.0672C15.5629 5.69965 15.8764 5.29502 16.5332 4.44757C16.7181 4.20898 16.9302 3.9353 17.1693 3.61747C18.3157 2.09378 18.7739 1.16355 18.6307 0.765131C18.4941 0.385663 17.6511 0.485976 17.6511 0.485976L14.8455 0.503395C14.8455 0.503395 14.6375 0.475115 14.4832 0.56706C14.3325 0.657255 14.2354 0.867456 14.2354 0.867456C14.2354 0.867456 13.7914 2.04653 13.199 3.04926C11.9498 5.16513 11.4502 5.27681 11.2461 5.14544C10.8479 4.88876 10.8669 4.19804 10.8834 3.59469C10.8866 3.47828 10.8897 3.36512 10.8897 3.25896C10.8897 2.78725 10.9062 2.37882 10.9204 2.02681C10.968 0.848698 10.9901 0.302669 10.2825 0.132275C9.97746 0.0587549 9.75304 0.0102577 8.97306 0.0024128C7.97196 -0.00794601 7.12462 0.00545025 6.64483 0.23989C6.32567 0.395781 6.07944 0.743165 6.2294 0.763119C6.41484 0.787881 6.83482 0.876045 7.05749 1.17845C7.34502 1.56854 7.33488 2.44471 7.33488 2.44471C7.33488 2.44471 7.50004 4.85844 6.94907 5.15832C6.57087 5.36397 6.05209 4.94409 4.93824 3.02452C4.36754 2.04122 3.93664 0.954373 3.93664 0.954373C3.93664 0.954373 3.85356 0.751252 3.70536 0.642611C3.52551 0.510979 3.27421 0.469039 3.27421 0.469039L0.608077 0.486479C0.608077 0.486479 0.20783 0.497602 0.0609107 0.671154C-0.0697961 0.825516 0.0505309 1.14486 0.0505309 1.14486C0.0505309 1.14486 2.13784 6.01527 4.50129 8.46976C6.66841 10.72 9.12937 10.5722 9.12937 10.5722L9.12937 10.5722Z" fill="#FFFFFF" fill-rule="evenodd" transform="translate(7.72 12.386)" />
    </g>
  </g>
</svg>